<?xml version="1.0" encoding="UTF-8" standalone="no"?>
<svg width="230" height="60" viewBox="0 0 230 60" fill="none" xmlns="http://www.w3.org/2000/svg">
  <!-- Heartbeat line icon -->
  <path d="M15 30C15 30 22 15 30 15C38 15 42 30 42 30C42 30 46 45 54 45C62 45 69 30 69 30" stroke="#00A6A6" stroke-width="4" stroke-linecap="round" stroke-linejoin="round" />
  
  <!-- Circle representing "360" -->
  <circle cx="48" cy="30" r="25" stroke="#185E6A" stroke-width="4" fill="none" stroke-dasharray="5 2" />
  
  <!-- Text "Chikitsa360" -->
  <path d="M80 25H84V43H80V25ZM86 33C86 31.7333 86.3333 30.6 87 29.6C87.6667 28.6 88.5667 27.8333 89.7 27.3C90.8333 26.7667 92.1 26.5 93.5 26.5C95.3 26.5 96.8333 26.9 98.1 27.7C99.3667 28.5 100.267 29.6 100.8 31H96.6C96.2 30.2667 95.6667 29.7667 95 29.5C94.3333 29.2333 93.5667 29.1 92.7 29.1C91.6333 29.1 90.7667 29.4 90.1 30C89.4333 30.5667 89.1 31.3667 89.1 32.4C89.1 33.4 89.4333 34.2 90.1 34.8C90.7667 35.3667 91.6333 35.6667 92.7 35.7C93.5667 35.7 94.3333 35.5667 95 35.3C95.6667 35.0333 96.2 34.5333 96.6 33.8H100.8C100.267 35.2 99.3667 36.3 98.1 37.1C96.8333 37.9 95.3 38.3 93.5 38.3C92.1 38.3 90.8333 38.0333 89.7 37.5C88.5667 36.9667 87.6667 36.2 87 35.2C86.3333 34.2 86 33.0667 86 33ZM102.156 33C102.156 31.7333 102.49 30.6 103.156 29.6C103.823 28.6 104.723 27.8333 105.856 27.3C106.99 26.7667 108.256 26.5 109.656 26.5C111.39 26.5 112.89 26.9333 114.156 27.8C115.423 28.6667 116.323 29.9 116.856 31.5H113.056C112.723 30.8333 112.256 30.3 111.656 29.9C111.056 29.5 110.323 29.3 109.456 29.3C108.323 29.3 107.423 29.7 106.756 30.5C106.09 31.2667 105.756 32.2667 105.756 33.5C105.756 34.7333 106.09 35.7333 106.756 36.5C107.423 37.2667 108.323 37.6667 109.456 37.7C110.323 37.7 111.056 37.5 111.656 37.1C112.256 36.7 112.723 36.1667 113.056 35.5H116.856C116.323 37.1 115.423 38.3333 114.156 39.2C112.89 40.0667 111.39 40.5 109.656 40.5C108.256 40.5 106.99 40.2333 105.856 39.7C104.723 39.1667 103.823 38.4 103.156 37.4C102.49 36.4 102.156 35.2667 102.156 33ZM119.512 27H123.312V29.4H123.412C123.745 28.6 124.245 27.9667 124.912 27.5C125.579 27.0333 126.345 26.8 127.212 26.8C128.212 26.8 129.079 27.1 129.812 27.7C130.545 28.3 130.912 29.1333 130.912 30.2V40H127.112V31.5C127.112 31 126.979 30.6 126.712 30.3C126.445 30 126.079 29.85 125.612 29.85C125.145 29.85 124.745 30 124.412 30.3C124.079 30.6 123.912 31 123.912 31.5V40H120.112V27H119.512ZM133.312 27H137.112V40H133.312V27ZM135.212 25.3C134.612 25.3 134.112 25.1 133.712 24.7C133.312 24.3 133.112 23.8 133.112 23.2C133.112 22.6 133.312 22.1 133.712 21.7C134.112 21.3 134.612 21.1 135.212 21.1C135.812 21.1 136.312 21.3 136.712 21.7C137.112 22.1 137.312 22.6 137.312 23.2C137.312 23.8 137.112 24.3 136.712 24.7C136.312 25.1 135.812 25.3 135.212 25.3ZM139.992 33.5C139.992 32.2333 140.292 31.1 140.892 30.1C141.492 29.1 142.325 28.3333 143.392 27.8C144.458 27.2667 145.658 27 146.992 27C148.325 27 149.525 27.2667 150.592 27.8C151.658 28.3333 152.492 29.1 153.092 30.1C153.692 31.1 153.992 32.2333 153.992 33.5C153.992 34.7667 153.692 35.9 153.092 36.9C152.492 37.9 151.658 38.6667 150.592 39.2C149.525 39.7333 148.325 40 146.992 40C145.658 40 144.458 39.7333 143.392 39.2C142.325 38.6667 141.492 37.9 140.892 36.9C140.292 35.9 139.992 34.7667 139.992 33.5ZM143.792 33.5C143.792 34.3 144.058 34.9667 144.592 35.5C145.125 36.0333 145.958 36.3 146.992 36.3C148.025 36.3 148.858 36.0333 149.392 35.5C149.925 34.9667 150.192 34.3 150.192 33.5C150.192 32.7 149.925 32.0333 149.392 31.5C148.858 30.9667 148.025 30.7 146.992 30.7C145.958 30.7 145.125 30.9667 144.592 31.5C144.058 32.0333 143.792 32.7 143.792 33.5ZM154.328 27H158.128V29.4H158.228C158.561 28.6 159.061 27.9667 159.728 27.5C160.394 27.0333 161.161 26.8 162.028 26.8C163.028 26.8 163.894 27.1 164.628 27.7C165.361 28.3 165.728 29.1333 165.728 30.2V40H161.928V31.5C161.928 31 161.794 30.6 161.528 30.3C161.261 30 160.894 29.85 160.428 29.85C159.961 29.85 159.561 30 159.228 30.3C158.894 30.6 158.728 31 158.728 31.5V40H154.928V27H154.328ZM166.962 33.4C166.962 32.1333 167.196 31 167.662 30C168.129 29 168.829 28.2 169.762 27.6C170.696 27 171.829 26.7 173.162 26.7C174.829 26.7 176.229 27.1333 177.362 28C178.496 28.8667 179.262 30.0333 179.662 31.5H175.662C175.396 30.8333 174.962 30.5 174.362 30.5C173.962 30.5 173.629 30.6667 173.362 31C173.096 31.3333 172.962 31.8 172.962 32.4V34.4C172.962 35 173.096 35.4667 173.362 35.8C173.629 36.1333 173.962 36.3 174.362 36.3C174.962 36.3 175.396 35.9667 175.662 35.3H179.662C179.262 36.7667 178.496 37.9333 177.362 38.8C176.229 39.6667 174.829 40.1 173.162 40.1C171.829 40.1 170.696 39.8 169.762 39.2C168.829 38.6 168.129 37.8 167.662 36.8C167.196 35.8 166.962 34.6667 166.962 33.4ZM180.631 36.4V29.4H178.731V26.8H180.631V23.4H184.431V26.8H186.731V29.4H184.431V36.4C184.431 36.6667 184.497 36.8667 184.631 37C184.764 37.1333 184.964 37.2 185.231 37.2H186.731V40H184.031C182.831 40 181.964 39.7 181.431 39.1C180.897 38.5 180.631 37.6333 180.631 36.4ZM187.328 33.5C187.328 32.2333 187.628 31.1 188.228 30.1C188.828 29.1 189.661 28.3333 190.728 27.8C191.794 27.2667 192.994 27 194.328 27C195.661 27 196.861 27.2667 197.928 27.8C198.994 28.3333 199.828 29.1 200.428 30.1C201.028 31.1 201.328 32.2333 201.328 33.5C201.328 34.7667 201.028 35.9 200.428 36.9C199.828 37.9 198.994 38.6667 197.928 39.2C196.861 39.7333 195.661 40 194.328 40C192.994 40 191.794 39.7333 190.728 39.2C189.661 38.6667 188.828 37.9 188.228 36.9C187.628 35.9 187.328 34.7667 187.328 33.5ZM191.128 33.5C191.128 34.3 191.394 34.9667 191.928 35.5C192.461 36.0333 193.294 36.3 194.328 36.3C195.361 36.3 196.194 36.0333 196.728 35.5C197.261 34.9667 197.528 34.3 197.528 33.5C197.528 32.7 197.261 32.0333 196.728 31.5C196.194 30.9667 195.361 30.7 194.328 30.7C193.294 30.7 192.461 30.9667 191.928 31.5C191.394 32.0333 191.128 32.7 191.128 33.5Z" fill="#2C3E50"/>
  
  <!-- Some graphics for "360" -->
  <path d="M215 24C220.523 24 225 28.4772 225 34C225 39.5228 220.523 44 215 44C209.477 44 205 39.5228 205 34C205 28.4772 209.477 24 215 24Z" stroke="#FF7F5C" stroke-width="2" fill="none"/>
  <path d="M215 18V16" stroke="#FF7F5C" stroke-width="2" stroke-linecap="round"/>
  <path d="M215 52V50" stroke="#FF7F5C" stroke-width="2" stroke-linecap="round"/>
  <path d="M226 34H228" stroke="#FF7F5C" stroke-width="2" stroke-linecap="round"/>
  <path d="M202 34H204" stroke="#FF7F5C" stroke-width="2" stroke-linecap="round"/>
  <path d="M223.142 25.8579L224.557 24.4436" stroke="#FF7F5C" stroke-width="2" stroke-linecap="round"/>
  <path d="M205.443 43.5563L206.858 42.1421" stroke="#FF7F5C" stroke-width="2" stroke-linecap="round"/>
  <path d="M223.142 42.1421L224.557 43.5563" stroke="#FF7F5C" stroke-width="2" stroke-linecap="round"/>
  <path d="M205.443 24.4436L206.858 25.8579" stroke="#FF7F5C" stroke-width="2" stroke-linecap="round"/>
  <path d="M215 29V34L218 37" stroke="#FF7F5C" stroke-width="2" stroke-linecap="round" stroke-linejoin="round"/>
</svg>